{"accessors": [{"bufferView": 0, "componentType": 5126, "count": 245, "max": [19.22502899169922, 104.54212951660156, 19.22502899169922], "min": [-19.225000381469727, -7.815970093361102e-14, -19.225000381469727], "type": "VEC3"}, {"bufferView": 1, "componentType": 5125, "count": 495, "type": "SCALAR"}, {"bufferView": 2, "componentType": 5126, "count": 245, "type": "VEC3"}, {"bufferView": 3, "componentType": 5126, "count": 245, "type": "VEC4"}, {"bufferView": 4, "componentType": 5126, "count": 245, "type": "VEC2"}, {"bufferView": 5, "componentType": 5126, "count": 24, "max": [7.417707920074463, 5.328349590301514, 91.41822052001953], "min": [-7.417669773101807, -5.328360080718994, -91.4186019897461], "type": "VEC3"}, {"bufferView": 6, "componentType": 5125, "count": 58, "type": "SCALAR"}, {"bufferView": 7, "componentType": 5126, "count": 24, "type": "VEC3"}, {"bufferView": 8, "componentType": 5126, "count": 24, "type": "VEC4"}, {"bufferView": 9, "componentType": 5126, "count": 24, "type": "VEC2"}, {"bufferView": 10, "componentType": 5126, "count": 28, "max": [7.409909725189209, 5.847711563110352, 91.41862487792969], "min": [-7.4099202156066895, -5.847700119018555, -91.4186019897461], "type": "VEC3"}, {"bufferView": 11, "componentType": 5125, "count": 54, "type": "SCALAR"}, {"bufferView": 12, "componentType": 5126, "count": 28, "type": "VEC3"}, {"bufferView": 13, "componentType": 5126, "count": 28, "type": "VEC4"}, {"bufferView": 14, "componentType": 5126, "count": 28, "type": "VEC2"}, {"bufferView": 15, "componentType": 5126, "count": 16, "max": [3.474147081375122, 4.7129364013671875, 58.54542541503906], "min": [-3.4741499423980713, -4.712940216064453, -58.5453987121582], "type": "VEC3"}, {"bufferView": 16, "componentType": 5125, "count": 34, "type": "SCALAR"}, {"bufferView": 17, "componentType": 5126, "count": 16, "type": "VEC3"}, {"bufferView": 18, "componentType": 5126, "count": 16, "type": "VEC4"}, {"bufferView": 19, "componentType": 5126, "count": 16, "type": "VEC2"}, {"bufferView": 20, "componentType": 5126, "count": 24, "max": [7.423418045043945, 5.328349590301514, 91.41822052001953], "min": [-7.423389911651611, -5.328360080718994, -91.4186019897461], "type": "VEC3"}, {"bufferView": 21, "componentType": 5125, "count": 58, "type": "SCALAR"}, {"bufferView": 22, "componentType": 5126, "count": 24, "type": "VEC3"}, {"bufferView": 23, "componentType": 5126, "count": 24, "type": "VEC4"}, {"bufferView": 24, "componentType": 5126, "count": 24, "type": "VEC2"}, {"bufferView": 25, "componentType": 5126, "count": 64, "max": [2.7883214950561523, 15.198945045471191, 94.1307373046875], "min": [-3.267810106277466, -15.198800086975098, -96.26789855957031], "type": "VEC3"}, {"bufferView": 26, "componentType": 5125, "count": 133, "type": "SCALAR"}, {"bufferView": 27, "componentType": 5126, "count": 64, "type": "VEC3"}, {"bufferView": 28, "componentType": 5126, "count": 64, "type": "VEC4"}, {"bufferView": 29, "componentType": 5126, "count": 64, "type": "VEC2"}, {"bufferView": 30, "componentType": 5126, "count": 48, "max": [4.053709506988525, 19.946983337402344, 96.58475494384766], "min": [-4.053699970245361, -19.94700050354004, -96.58470153808594], "type": "VEC3"}, {"bufferView": 31, "componentType": 5125, "count": 130, "type": "SCALAR"}, {"bufferView": 32, "componentType": 5126, "count": 48, "type": "VEC3"}, {"bufferView": 33, "componentType": 5126, "count": 48, "type": "VEC4"}, {"bufferView": 34, "componentType": 5126, "count": 48, "type": "VEC2"}, {"bufferView": 35, "componentType": 5126, "count": 100, "max": [3.5478713512420654, 30.621774673461914, 95.5427017211914], "min": [-3.547869920730591, -30.621599197387695, -95.5427017211914], "type": "VEC3"}, {"bufferView": 36, "componentType": 5125, "count": 286, "type": "SCALAR"}, {"bufferView": 37, "componentType": 5126, "count": 100, "type": "VEC3"}, {"bufferView": 38, "componentType": 5126, "count": 100, "type": "VEC4"}, {"bufferView": 39, "componentType": 5126, "count": 100, "type": "VEC2"}, {"bufferView": 40, "componentType": 5126, "count": 24, "max": [0.40559646487236023, 29.469213485717773, 95.07058715820312], "min": [-0.4055970013141632, -29.469200134277344, -95.06999969482422], "type": "VEC3"}, {"bufferView": 41, "componentType": 5125, "count": 58, "type": "SCALAR"}, {"bufferView": 42, "componentType": 5126, "count": 24, "type": "VEC3"}, {"bufferView": 43, "componentType": 5126, "count": 24, "type": "VEC4"}, {"bufferView": 44, "componentType": 5126, "count": 24, "type": "VEC2"}, {"bufferView": 45, "componentType": 5126, "count": 22, "max": [0.45640623569488525, 30.278194427490234, 4.441380977630615], "min": [-0.45640501379966736, -30.278200149536133, -4.441380023956299], "type": "VEC3"}, {"bufferView": 46, "componentType": 5125, "count": 52, "type": "SCALAR"}, {"bufferView": 47, "componentType": 5126, "count": 22, "type": "VEC3"}, {"bufferView": 48, "componentType": 5126, "count": 22, "type": "VEC4"}, {"bufferView": 49, "componentType": 5126, "count": 22, "type": "VEC2"}, {"bufferView": 50, "componentType": 5126, "count": 20, "max": [1.2020834684371948, 42.66642379760742, 4.965266227722168], "min": [-1.2020900249481201, -42.66640090942383, -4.965270042419434], "type": "VEC3"}, {"bufferView": 51, "componentType": 5125, "count": 46, "type": "SCALAR"}, {"bufferView": 52, "componentType": 5126, "count": 20, "type": "VEC3"}, {"bufferView": 53, "componentType": 5126, "count": 20, "type": "VEC4"}, {"bufferView": 54, "componentType": 5126, "count": 20, "type": "VEC2"}, {"bufferView": 55, "componentType": 5126, "count": 100, "max": [3.9999966621398926, 17.114540100097656, 13.92007827758789], "min": [-4.0, -17.114500045776367, -13.920100212097168], "type": "VEC3"}, {"bufferView": 56, "componentType": 5125, "count": 102, "type": "SCALAR"}, {"bufferView": 57, "componentType": 5126, "count": 100, "type": "VEC3"}, {"bufferView": 58, "componentType": 5126, "count": 100, "type": "VEC4"}, {"bufferView": 59, "componentType": 5126, "count": 100, "type": "VEC2"}, {"bufferView": 60, "componentType": 5126, "count": 6, "max": [1.118821144104004, 11.690970420837402, 4.188132286071777], "min": [-1.1188299655914307, -11.690999984741211, -4.188139915466309], "type": "VEC3"}, {"bufferView": 61, "componentType": 5125, "count": 6, "type": "SCALAR"}, {"bufferView": 62, "componentType": 5126, "count": 6, "type": "VEC3"}, {"bufferView": 63, "componentType": 5126, "count": 6, "type": "VEC4"}, {"bufferView": 64, "componentType": 5126, "count": 6, "type": "VEC2"}, {"bufferView": 65, "componentType": 5126, "count": 4, "max": [1.118821144104004, 16.954526901245117, 4.171741008758545], "min": [-1.1188299655914307, -16.954599380493164, -4.1717400550842285], "type": "VEC3"}, {"bufferView": 66, "componentType": 5125, "count": 4, "type": "SCALAR"}, {"bufferView": 67, "componentType": 5126, "count": 4, "type": "VEC3"}, {"bufferView": 68, "componentType": 5126, "count": 4, "type": "VEC4"}, {"bufferView": 69, "componentType": 5126, "count": 4, "type": "VEC2"}], "asset": {"version": "2.0"}, "bufferViews": [{"buffer": 0, "byteLength": 2940, "target": 34962}, {"buffer": 1, "byteLength": 1980, "target": 34963}, {"buffer": 2, "byteLength": 2940, "target": 34962}, {"buffer": 3, "byteLength": 3920, "target": 34962}, {"buffer": 4, "byteLength": 1960, "target": 34962}, {"buffer": 5, "byteLength": 288, "target": 34962}, {"buffer": 6, "byteLength": 232, "target": 34963}, {"buffer": 7, "byteLength": 288, "target": 34962}, {"buffer": 8, "byteLength": 384, "target": 34962}, {"buffer": 9, "byteLength": 192, "target": 34962}, {"buffer": 10, "byteLength": 336, "target": 34962}, {"buffer": 11, "byteLength": 216, "target": 34963}, {"buffer": 12, "byteLength": 336, "target": 34962}, {"buffer": 13, "byteLength": 448, "target": 34962}, {"buffer": 14, "byteLength": 224, "target": 34962}, {"buffer": 15, "byteLength": 192, "target": 34962}, {"buffer": 16, "byteLength": 136, "target": 34963}, {"buffer": 17, "byteLength": 192, "target": 34962}, {"buffer": 18, "byteLength": 256, "target": 34962}, {"buffer": 19, "byteLength": 128, "target": 34962}, {"buffer": 20, "byteLength": 288, "target": 34962}, {"buffer": 21, "byteLength": 232, "target": 34963}, {"buffer": 22, "byteLength": 288, "target": 34962}, {"buffer": 23, "byteLength": 384, "target": 34962}, {"buffer": 24, "byteLength": 192, "target": 34962}, {"buffer": 25, "byteLength": 768, "target": 34962}, {"buffer": 26, "byteLength": 532, "target": 34963}, {"buffer": 27, "byteLength": 768, "target": 34962}, {"buffer": 28, "byteLength": 1024, "target": 34962}, {"buffer": 29, "byteLength": 512, "target": 34962}, {"buffer": 30, "byteLength": 576, "target": 34962}, {"buffer": 31, "byteLength": 520, "target": 34963}, {"buffer": 32, "byteLength": 576, "target": 34962}, {"buffer": 33, "byteLength": 768, "target": 34962}, {"buffer": 34, "byteLength": 384, "target": 34962}, {"buffer": 35, "byteLength": 1200, "target": 34962}, {"buffer": 36, "byteLength": 1144, "target": 34963}, {"buffer": 37, "byteLength": 1200, "target": 34962}, {"buffer": 38, "byteLength": 1600, "target": 34962}, {"buffer": 39, "byteLength": 800, "target": 34962}, {"buffer": 40, "byteLength": 288, "target": 34962}, {"buffer": 41, "byteLength": 232, "target": 34963}, {"buffer": 42, "byteLength": 288, "target": 34962}, {"buffer": 43, "byteLength": 384, "target": 34962}, {"buffer": 44, "byteLength": 192, "target": 34962}, {"buffer": 45, "byteLength": 264, "target": 34962}, {"buffer": 46, "byteLength": 208, "target": 34963}, {"buffer": 47, "byteLength": 264, "target": 34962}, {"buffer": 48, "byteLength": 352, "target": 34962}, {"buffer": 49, "byteLength": 176, "target": 34962}, {"buffer": 50, "byteLength": 240, "target": 34962}, {"buffer": 51, "byteLength": 184, "target": 34963}, {"buffer": 52, "byteLength": 240, "target": 34962}, {"buffer": 53, "byteLength": 320, "target": 34962}, {"buffer": 54, "byteLength": 160, "target": 34962}, {"buffer": 55, "byteLength": 1200, "target": 34962}, {"buffer": 56, "byteLength": 408, "target": 34963}, {"buffer": 57, "byteLength": 1200, "target": 34962}, {"buffer": 58, "byteLength": 1600, "target": 34962}, {"buffer": 59, "byteLength": 800, "target": 34962}, {"buffer": 60, "byteLength": 72, "target": 34962}, {"buffer": 61, "byteLength": 24, "target": 34963}, {"buffer": 62, "byteLength": 72, "target": 34962}, {"buffer": 63, "byteLength": 96, "target": 34962}, {"buffer": 64, "byteLength": 48, "target": 34962}, {"buffer": 65, "byteLength": 48, "target": 34962}, {"buffer": 66, "byteLength": 16, "target": 34963}, {"buffer": 67, "byteLength": 48, "target": 34962}, {"buffer": 68, "byteLength": 64, "target": 34962}, {"buffer": 69, "byteLength": 32, "target": 34962}], "buffers": [{"byteLength": 2940, "uri": "data:application/octet-stream;base64,"}, {"byteLength": 1980, "uri": "data:application/octet-stream;base64,"}, {"byteLength": 2940, "uri": "data:application/octet-stream;base64,"}, {"byteLength": 3920, "uri": "data:application/octet-stream;base64,"}, {"byteLength": 1960, "uri": "data:application/octet-stream;base64,"}, {"byteLength": 288, "uri": "data:application/octet-stream;base64,"}, {"byteLength": 232, "uri": "data:application/octet-stream;base64,"}, {"byteLength": 288, "uri": "data:application/octet-stream;base64,"}, {"byteLength": 384, "uri": "data:application/octet-stream;base64,"}, {"byteLength": 192, "uri": "data:application/octet-stream;base64,"}, {"byteLength": 336, "uri": "data:application/octet-stream;base64,"}, {"byteLength": 216, "uri": "data:application/octet-stream;base64,"}, {"byteLength": 336, "uri": "data:application/octet-stream;base64,"}, {"byteLength": 448, "uri": "data:application/octet-stream;base64,"}, {"byteLength": 224, "uri": "data:application/octet-stream;base64,"}, {"byteLength": 192, "uri": "data:application/octet-stream;base64,"}, {"byteLength": 136, "uri": "data:application/octet-stream;base64,"}, {"byteLength": 192, "uri": "data:application/octet-stream;base64,"}, {"byteLength": 256, "uri": "data:application/octet-stream;base64,"}, {"byteLength": 128, "uri": "data:application/octet-stream;base64,"}, {"byteLength": 288, "uri": "data:application/octet-stream;base64,"}, {"byteLength": 232, "uri": "data:application/octet-stream;base64,"}, {"byteLength": 288, "uri": "data:application/octet-stream;base64,"}, {"byteLength": 384, "uri": "data:application/octet-stream;base64,"}, {"byteLength": 192, "uri": "data:application/octet-stream;base64,"}, {"byteLength": 768, "uri": "data:application/octet-stream;base64,"}, {"byteLength": 532, "uri": "data:application/octet-stream;base64,"}, {"byteLength": 768, "uri": "data:application/octet-stream;base64,"}, {"byteLength": 1024, "uri": "data:application/octet-stream;base64,"}, {"byteLength": 512, "uri": "data:application/octet-stream;base64,"}, {"byteLength": 576, "uri": "data:application/octet-stream;base64,"}, {"byteLength": 520, "uri": "data:application/octet-stream;base64,"}, {"byteLength": 576, "uri": "data:application/octet-stream;base64,"}, {"byteLength": 768, "uri": "data:application/octet-stream;base64,"}, {"byteLength": 384, "uri": "data:application/octet-stream;base64,"}, {"byteLength": 1200, "uri": "data:application/octet-stream;base64,"}, {"byteLength": 1144, "uri": "data:application/octet-stream;base64,"}, {"byteLength": 1200, "uri": "data:application/octet-stream;base64,"}, {"byteLength": 1600, "uri": "data:application/octet-stream;base64,"}, {"byteLength": 800, "uri": "data:application/octet-stream;base64,"}, {"byteLength": 288, "uri": "data:application/octet-stream;base64,"}, {"byteLength": 232, "uri": "data:application/octet-stream;base64,"}, {"byteLength": 288, "uri": "data:application/octet-stream;base64,"}, {"byteLength": 384, "uri": "data:application/octet-stream;base64,"}, {"byteLength": 192, "uri": "data:application/octet-stream;base64,"}, {"byteLength": 264, "uri": "data:application/octet-stream;base64,"}, {"byteLength": 208, "uri": "data:application/octet-stream;base64,"}, {"byteLength": 264, "uri": "data:application/octet-stream;base64,"}, {"byteLength": 352, "uri": "data:application/octet-stream;base64,"}, {"byteLength": 176, "uri": "data:application/octet-stream;base64,"}, {"byteLength": 240, "uri": "data:application/octet-stream;base64,"}, {"byteLength": 184, "uri": "data:application/octet-stream;base64,"}, {"byteLength": 240, "uri": "data:application/octet-stream;base64,"}, {"byteLength": 320, "uri": "data:application/octet-stream;base64,"}, {"byteLength": 160, "uri": "data:application/octet-stream;base64,"}, {"byteLength": 1200, "uri": "data:application/octet-stream;base64,"}, {"byteLength": 408, "uri": "data:application/octet-stream;base64,"}, {"byteLength": 1200, "uri": "data:application/octet-stream;base64,"}, {"byteLength": 1600, "uri": "data:application/octet-stream;base64,"}, {"byteLength": 800, "uri": "data:application/octet-stream;base64,"}, {"byteLength": 72, "uri": "data:application/octet-stream;base64,"}, {"byteLength": 24, "uri": "data:application/octet-stream;base64,"}, {"byteLength": 72, "uri": "data:application/octet-stream;base64,"}, {"byteLength": 96, "uri": "data:application/octet-stream;base64,"}, {"byteLength": 48, "uri": "data:application/octet-stream;base64,"}, {"byteLength": 48, "uri": "data:application/octet-stream;base64,"}, {"byteLength": 16, "uri": "data:application/octet-stream;base64,"}, {"byteLength": 48, "uri": "data:application/octet-stream;base64,"}, {"byteLength": 64, "uri": "data:application/octet-stream;base64,"}, {"byteLength": 32, "uri": "data:application/octet-stream;base64,"}], "extensionsUsed": ["KHR_materials_specular"], "images": [{"uri": "textures/CautionTape_AlbedoTransparency.png"}, {"uri": "textures/CautionTape_Normal_.png"}, {"uri": "textures/CautionTape_Emission.png"}, {"uri": "textures/CautionTape_AmbientOcclusion.png"}, {"uri": "textures/_mr__CautionTape_Roughness.png"}], "materials": [{"pbrMetallicRoughness": {"baseColorTexture": {"index": 0}, "metallicRoughnessTexture": {"index": 4}, "metallicFactor": 1.0, "roughnessFactor": 1.0}, "doubleSided": false, "emissiveTexture": {"index": 2}, "emissiveFactor": [0.1, 0.1, 0.1], "normalTexture": {"index": 1}, "occlusionTexture": {"index": 3}}], "meshes": [{"name": "Stand_CautionTape_0", "primitives": [{"attributes": {"NORMAL": 2, "POSITION": 0, "TANGENT": 3, "TEXCOORD_0": 4}, "indices": 1, "material": 0, "mode": 5}]}, {"name": "CautionTape_1_CautionTape_0", "primitives": [{"attributes": {"NORMAL": 7, "POSITION": 5, "TANGENT": 8, "TEXCOORD_0": 9}, "indices": 6, "material": 0, "mode": 5}]}, {"name": "CautionTape_2_CautionTape_0", "primitives": [{"attributes": {"NORMAL": 12, "POSITION": 10, "TANGENT": 13, "TEXCOORD_0": 14}, "indices": 11, "material": 0, "mode": 5}]}, {"name": "CautionTape_3_CautionTape_0", "primitives": [{"attributes": {"NORMAL": 17, "POSITION": 15, "TANGENT": 18, "TEXCOORD_0": 19}, "indices": 16, "material": 0, "mode": 5}]}, {"name": "CautionTape_4_CautionTape_0", "primitives": [{"attributes": {"NORMAL": 22, "POSITION": 20, "TANGENT": 23, "TEXCOORD_0": 24}, "indices": 21, "material": 0, "mode": 5}]}, {"name": "CautionTape_5_CautionTape_0", "primitives": [{"attributes": {"NORMAL": 27, "POSITION": 25, "TANGENT": 28, "TEXCOORD_0": 29}, "indices": 26, "material": 0, "mode": 5}]}, {"name": "CautionTape_6_CautionTape_0", "primitives": [{"attributes": {"NORMAL": 32, "POSITION": 30, "TANGENT": 33, "TEXCOORD_0": 34}, "indices": 31, "material": 0, "mode": 5}]}, {"name": "CautionTape_7_CautionTape_0", "primitives": [{"attributes": {"NORMAL": 37, "POSITION": 35, "TANGENT": 38, "TEXCOORD_0": 39}, "indices": 36, "material": 0, "mode": 5}]}, {"name": "CautionTape_8_CautionTape_0", "primitives": [{"attributes": {"NORMAL": 42, "POSITION": 40, "TANGENT": 43, "TEXCOORD_0": 44}, "indices": 41, "material": 0, "mode": 5}]}, {"name": "CautionTape_9_CautionTape_0", "primitives": [{"attributes": {"NORMAL": 47, "POSITION": 45, "TANGENT": 48, "TEXCOORD_0": 49}, "indices": 46, "material": 0, "mode": 5}]}, {"name": "CautionTape_10_CautionTape_0", "primitives": [{"attributes": {"NORMAL": 52, "POSITION": 50, "TANGENT": 53, "TEXCOORD_0": 54}, "indices": 51, "material": 0, "mode": 5}]}, {"name": "CautionTape_11_CautionTape_0", "primitives": [{"attributes": {"NORMAL": 57, "POSITION": 55, "TANGENT": 58, "TEXCOORD_0": 59}, "indices": 56, "material": 0, "mode": 5}]}, {"name": "Tape_01_CautionTape_0", "primitives": [{"attributes": {"NORMAL": 62, "POSITION": 60, "TANGENT": 63, "TEXCOORD_0": 64}, "indices": 61, "material": 0, "mode": 5}]}, {"name": "Tape_02_CautionTape_0", "primitives": [{"attributes": {"NORMAL": 67, "POSITION": 65, "TANGENT": 68, "TEXCOORD_0": 69}, "indices": 66, "material": 0, "mode": 5}]}], "nodes": [{"mesh": 0, "name": "Stand_CautionTape_0"}, {"children": [0], "name": "Stand", "rotation": [0.0, 0.0, 0.0, 1.0], "scale": [1.0, 1.0, 1.0], "translation": [6.056680202484131, 0.0, -146.81399536132812]}, {"mesh": 1, "name": "CautionTape_1_CautionTape_0"}, {"children": [2], "name": "CautionTape_1", "rotation": [0.0, 0.0, 0.0, 1.0], "scale": [1.0, 1.0, 1.0], "translation": [2.9557700157165527, 147.52699279785156, -0.567093014717102]}, {"mesh": 2, "name": "CautionTape_2_CautionTape_0"}, {"children": [4], "name": "CautionTape_2", "rotation": [0.0, 0.0, 0.0, 1.0], "scale": [1.0, 1.0, 1.0], "translation": [2.948009967803955, 133.2209930419922, -0.567093014717102]}, {"mesh": 3, "name": "CautionTape_3_CautionTape_0"}, {"children": [6], "name": "CautionTape_3", "rotation": [0.0, 0.0, 0.0, 1.0], "scale": [1.0, 1.0, 1.0], "translation": [3.8904099464416504, 117.7229995727539, -3.301990032196045]}, {"mesh": 4, "name": "CautionTape_4_CautionTape_0"}, {"children": [8], "name": "CautionTape_4", "rotation": [0.0, 0.0, 0.0, 1.0], "scale": [1.0, 1.0, 1.0], "translation": [2.961479902267456, 101.72599792480469, -0.567093014717102]}, {"mesh": 5, "name": "CautionTape_5_CautionTape_0"}, {"children": [10], "name": "CautionTape_5", "rotation": [-0.04959516372859154, 0.0, 0.0, 0.9987694026824964], "scale": [1.0, 1.0000003576278687, 1.0000003576278687], "translation": [-1.6907999515533447, 64.03250122070312, 6.991950035095215]}, {"mesh": 6, "name": "CautionTape_6_CautionTape_0"}, {"children": [12], "name": "CautionTape_6", "rotation": [-0.05170869722424518, 0.0, 0.0, 0.9986622104752907], "scale": [1.0, 0.9999995827674866, 0.9999995827674866], "translation": [1.6907999515533447, 60.90010070800781, 0.4192950129508972]}, {"mesh": 7, "name": "CautionTape_7_CautionTape_0"}, {"children": [14], "name": "CautionTape_7", "rotation": [-0.020920122019249247, 0.0, 0.0, 0.9997811502997599], "scale": [1.0, 1.0000003576278687, 1.0000003576278687], "translation": [0.05199379846453667, 43.63209915161133, 1.0764000415802002]}, {"mesh": 8, "name": "CautionTape_8_CautionTape_0"}, {"children": [16], "name": "CautionTape_8", "rotation": [0.0, 0.0, 0.0, 1.0], "scale": [1.0, 1.0, 1.0], "translation": [2.8656699657440186, 40.358001708984375, -0.36612099409103394]}, {"mesh": 9, "name": "CautionTape_9_CautionTape_0"}, {"children": [18], "name": "CautionTape_9", "rotation": [0.0, 0.0, 0.0, 1.0], "scale": [1.0, 1.0, 1.0], "translation": [-0.5150700211524963, 43.53689956665039, 91.71700286865234]}, {"mesh": 10, "name": "CautionTape_10_CautionTape_0"}, {"children": [20], "name": "CautionTape_10", "rotation": [0.0, 0.0, 0.0, 1.0], "scale": [1.0, 1.0, 1.0], "translation": [-6.352680206298828, 42.60940170288086, -92.89820098876953]}, {"mesh": 11, "name": "CautionTape_11_CautionTape_0"}, {"children": [22], "name": "CautionTape_11", "rotation": [0.0, 0.0, 0.0, 1.0], "scale": [1.0, 1.0, 1.0], "translation": [0.0, 19.378700256347656, 136.7220001220703]}, {"mesh": 12, "name": "Tape_01_CautionTape_0"}, {"children": [24], "name": "Tape_01", "rotation": [0.0, 0.0, 0.0, 1.0], "scale": [1.0, 1.0, 1.0], "translation": [-8.186639785766602, 63.66749954223633, 134.0780029296875]}, {"mesh": 13, "name": "Tape_02_CautionTape_0"}, {"children": [26], "name": "Tape_02", "rotation": [0.0, 0.0, 0.0, 1.0], "scale": [1.0, 1.0, 1.0], "translation": [-8.186639785766602, 64.1134033203125, 120.51499938964844]}, {"children": [1, 3, 5, 7, 9, 11, 13, 15, 17, 19, 21, 23, 25, 27], "name": "CautionTape"}, {"children": [28], "name": "RootNode"}, {"children": [29], "name": "Caution Tape", "rotation": [1.1102230246251565e-16, 0.0, 0.0, 1.0], "scale": [1.0, 1.0, 1.0], "translation": [0.0, 0.0, 0.0]}], "samplers": [{"magFilter": 9729, "minFilter": 9729, "wrapS": 10497, "wrapT": 10497}], "scene": 0, "scenes": [{"nodes": [30]}], "textures": [{"source": 0, "sampler": 0}, {"source": 1, "sampler": 0}, {"source": 2, "sampler": 0}, {"source": 3, "sampler": 0}, {"source": 4, "sampler": 0}]}